<svg width="120" height="120" viewBox="0 0 120 120" fill="none" xmlns="http://www.w3.org/2000/svg">
<g clip-path="url(#clip0)">
<path d="M21.0303 56.2139L24.7879 54.3549L30.7273 45.4317L32.5455 44.6882L34.4849 53.7352L31.9394 54.107L30 50.389L28.5455 56.2139H34.9697L41.6364 57.9489L44.3031 56.2139L48.7879 60.9233L50.7273 52.248L53.8788 55.4703L55.8182 52.7437L58.9698 51.8762L63.5758 47.5386L64.3031 45.4317L68.0607 46.0514L69.6364 48.1583L66.8486 54.107L73.7577 50.513V48.7779L76.4243 48.1583L79.3334 51.1326L82.2425 47.5386V45.0599L86.9698 41.7138L88.9092 38.8633H91.9395L97.2728 27.8334L101.879 23L103.576 25.7265L100.909 29.1966L101.879 31.4274L104.424 31.9231L106.485 41.0941V48.7779L110.121 53.8591L111.94 60.9233L105.636 56.8335L102.849 45.0599L101.152 45.4317L100.909 53.3634L96.3031 60.9233L94.9698 72.449L98.1213 73.1926L99.4547 71.5815L102.485 75.0516L104.788 85.4619L104.546 92.1542H101.636L100.546 82.7354L98.485 85.5858L94.0001 84.5943L90.3637 81.496L86.2425 82.9832L86.4849 89.6756L83.2122 90.5431L78.3637 94.2611L72.5455 93.5175L70.2425 92.1542L66.6061 92.7739L67.8183 94.2611L64.9092 95.9961L62.6061 94.8807L58.2425 96.8636L51.5758 93.5175L49.0304 87.5687L46.8485 87.8166L44.3031 85.7097L44.1819 84.0986L36.0606 83.2311L34.7273 87.6927L29.6364 85.3379L27.0909 81.0003H21.6364L21.0303 87.9405L17.8788 88.932L16.303 95.2525L15.0909 94.1371L10 80.8764L16.0606 77.902L15.0909 72.0772L14.1212 66.1284L16.7879 62.2865L15.9394 59.9318L19.5758 55.966L21.0303 56.2139ZM101.636 70.8379L107.212 79.2653L109.03 78.5217L106.727 75.0516L101.636 69.5985V70.8379ZM44.6667 53.7352V51.2566L48.9091 48.1583L52.5455 46.2993H48.3031L44.5455 48.5301L42.2425 50.6369V53.7352H44.6667Z" fill="#2A2C2F"/>
<path d="M137.601 81.2393H144.31V73.8787H148.027C153.662 73.8787 157.439 70.5495 157.439 65.2107C157.439 59.9325 153.759 56.4459 148.268 56.4459H137.601V81.2393ZM144.31 68.6489V61.821H146.676C149.029 61.821 150.44 63.08 150.44 65.2107C150.44 67.3293 149.029 68.6489 146.676 68.6489H144.31Z" fill="#2A2C2F"/>
<path d="M168.528 81.5782C174.562 81.5782 178.133 77.7043 178.133 71.9902C178.133 66.2761 174.562 62.4021 168.528 62.4021C162.495 62.4021 158.923 66.2761 158.923 71.9902C158.923 77.7043 162.495 81.5782 168.528 81.5782ZM168.577 76.6389C166.791 76.6389 165.729 74.8593 165.729 71.9418C165.729 69.0242 166.791 67.2446 168.577 67.2446C170.266 67.2446 171.328 69.0242 171.328 71.9418C171.328 74.8593 170.266 76.6389 168.577 76.6389Z" fill="#2A2C2F"/>
<path d="M189.766 81.5782C195.256 81.5782 198.623 78.4185 198.695 73.4913H192.517C192.372 75.4404 191.322 76.4937 189.862 76.4937C188.113 76.4937 186.966 74.9925 186.966 71.9418C186.966 68.891 188.113 67.3898 189.862 67.3898C191.334 67.3898 192.336 68.4431 192.517 70.3922H198.695C198.659 65.5497 195.22 62.4021 189.766 62.4021C183.732 62.4021 180.161 66.2761 180.161 71.9902C180.161 77.7043 183.732 81.5782 189.766 81.5782Z" fill="#2A2C2F"/>
<path d="M210.373 81.5782C215.863 81.5782 219.23 78.4185 219.302 73.4913H213.124C212.979 75.4404 211.929 76.4937 210.469 76.4937C208.72 76.4937 207.573 74.9925 207.573 71.9418C207.573 68.891 208.72 67.3898 210.469 67.3898C211.941 67.3898 212.943 68.4431 213.124 70.3922H219.302C219.266 65.5497 215.827 62.4021 210.373 62.4021C204.339 62.4021 200.768 66.2761 200.768 71.9902C200.768 77.7043 204.339 81.5782 210.373 81.5782Z" fill="#2A2C2F"/>
<path d="M228.325 72.7165V62.6442H222.05V81.2393H228.325L233.489 71.1185V81.2393H239.764V62.6442H233.489L228.325 72.7165Z" fill="#2A2C2F"/>
<path d="M253.822 81.2393H260V62.6442H251.312C245.966 62.6442 242.588 65.356 242.624 69.1331C242.6 71.2517 243.867 73.0071 246.087 74.0482L242.431 81.2393H248.561L251.686 75.0893H253.822V81.2393ZM253.822 71.0701H251.457C249.683 71.0701 248.862 70.1985 248.899 69.3752C248.862 68.6005 249.635 67.632 251.312 67.632H253.822V71.0701Z" fill="#2A2C2F"/>
</g>
<defs>
<clipPath id="clip0">
<rect width="120" height="120" fill="white"/>
</clipPath>
</defs>
</svg>
